<?xml version="1.0" encoding="UTF-8" standalone="no"?>
<!-- Generator: Adobe Illustrator 13.0.0, SVG Export Plug-In  -->

<svg
   xmlns:dc="http://purl.org/dc/elements/1.1/"
   xmlns:cc="http://creativecommons.org/ns#"
   xmlns:rdf="http://www.w3.org/1999/02/22-rdf-syntax-ns#"
   xmlns:svg="http://www.w3.org/2000/svg"
   xmlns="http://www.w3.org/2000/svg"
   xmlns:xlink="http://www.w3.org/1999/xlink"
   xmlns:sodipodi="http://sodipodi.sourceforge.net/DTD/sodipodi-0.dtd"
   xmlns:inkscape="http://www.inkscape.org/namespaces/inkscape"
   version="1.1"
   x="0px"
   y="0px"
   width="246.46516"
   height="238.80814"
   viewBox="-0.251 -0.25 246.46516 238.80814"
   xml:space="preserve"
   id="svg2"
   sodipodi:version="0.32"
   inkscape:version="0.92.3 (2405546, 2018-03-11)"
   sodipodi:docname="bismillah-khalid.svg"
   inkscape:output_extension="org.inkscape.output.svg.inkscape"><metadata
   id="metadata41"><rdf:RDF><cc:Work
       rdf:about=""><dc:format>image/svg+xml</dc:format><dc:type
         rdf:resource="http://purl.org/dc/dcmitype/StillImage" /><dc:title></dc:title></cc:Work></rdf:RDF></metadata><sodipodi:namedview
   inkscape:window-height="1017"
   inkscape:window-width="1920"
   inkscape:pageshadow="2"
   inkscape:pageopacity="0.0"
   guidetolerance="10.0"
   gridtolerance="10.0"
   objecttolerance="10.0"
   borderopacity="1.0"
   bordercolor="#666666"
   pagecolor="#ffffff"
   id="base"
   showgrid="false"
   inkscape:zoom="1.4554615"
   inkscape:cx="175.19365"
   inkscape:cy="132.03139"
   inkscape:window-x="-8"
   inkscape:window-y="-8"
   inkscape:current-layer="svg2"
   fit-margin-top="0"
   fit-margin-left="0"
   fit-margin-right="0"
   fit-margin-bottom="0"
   inkscape:window-maximized="1" />
<defs
   id="defs4"><linearGradient
   inkscape:collect="always"
   id="linearGradient1400"><stop
     style="stop-color:#ae0001;stop-opacity:1"
     offset="0"
     id="stop1396" /><stop
     style="stop-color:#eeba30;stop-opacity:1"
     offset="1"
     id="stop1398" /></linearGradient><inkscape:perspective
   sodipodi:type="inkscape:persp3d"
   inkscape:vp_x="0 : 120 : 1"
   inkscape:vp_y="0 : 1000 : 0"
   inkscape:vp_z="247 : 120 : 1"
   inkscape:persp3d-origin="123.5 : 80.000001 : 1"
   id="perspective43" />
<linearGradient
   inkscape:collect="always"
   xlink:href="#linearGradient1400"
   id="linearGradient1402"
   x1="0.092530727"
   y1="0.30703795"
   x2="246.40617"
   y2="239.40646"
   gradientUnits="userSpaceOnUse"
   spreadMethod="repeat"
   gradientTransform="translate(-0.25454546,-0.46304713)" /></defs>
















<path
   id="path8"
   d="m 78.668455,209.93495 c -8.88,1.26 -15.54,-6.66 -15.84,-13.681 -0.279,-6.569 1.15,-10.85 2.641,-15.36 -4.23,1.541 -7.5,4.102 -11.761,5.041 -9.529,2.101 -18.84,-3.021 -20.88,-10.561 -2.08,-7.689 0.62,-14.852 3.36,-20.641 -3.5,1.4 -8.71,2.82 -12.96,1.199 -8.67,-3.299 -12.61,-19.789 -2.4,-32.64 -8.46,-1.409 -16.5400005,-18.38 2.4,-39.599997 -8.15,12.81 -11.68,29.829997 -3.36,31.919997 8.16,2.05 13.181,-3.78 17.28,-7.44 8.02,-7.17 17.58,-16.069997 27.12,-19.679997 1.66,-0.6 2.35,-0.69 3.6,-0.96 -0.92,-4.62 -2.14,-10.78 -0.96,-16.56 0.95,-4.66 6.28,-13.1 9.12,-13.68 0.94,-0.19 3.60759,1.37521 5.521,3.36 1.01119,1.048907 2.1141,2.141255 3.359,3.12 -0.6902,-5.977814 -3.54,-29.66 -6,-33.36 1.271,-3.05 2.641,-6 4.32,-8.64 2.89271,7.910202 5.07668,14.286883 8.879,23.28 -2.129,0.13 -2.22729,-1.651255 -4.08,-1.92 1.07312,5.508745 1.56,11.21 2.16,15.6 0.47999,3.52506 0.99045,6.38647 1.5738,9.869887 4.05385,5.194374 10.461285,5.263607 15.466195,4.530113 -1.84,-12.64 -3.601,-26.61 -5.521,-39.6 -0.5,-3.39 -1.529,-7.23 -2.879995,-9.6 1.600995,-2.64 2.919995,-5.56 4.318995,-8.4 3.20841,8.024243 4.66064,13.301187 8.881,23.28 -1.47663,-0.808745 -1.75246,-1.602713 -3.841,-1.92 0.649,9.38 3.101,21.14 4.08,30.72 0.29,2.84 -0.16,4.69 1.92,5.52 5.149,-0.77 12.181,-1.74 16.801,-3.84 -1.021,-5.75 -1.42729,-8.677935 -2.641,-16.08 -3.75,-1.13 -8.18417,-1.697287 -12,-2.64 0.88,-2.72 2.71,-4.49 3.601,-7.2 2.55391,-1.497287 4.63854,-2.257287 7.199,-2.4 -0.32271,-4.824372 -0.729,-9.47 -1.68,-13.92 -0.341,-1.57 -1.971,-3.3 -1.921,-4.8 1.27914,-2.6552 2.12327,-5.755253 3.841,-8.16 3.94605,8.897735 5.72157,13.203389 10.08,22.56 -1.771,-0.838745 -2.85583,-1.811255 -4.08,-1.92 0.0673,2.09 0.449,4.65 0.72,6.72 8.33,2.07 16.141,5.93 24.24,7.44 -0.38457,-6.033117 -0.7298,-8.55668 -1.681,-16.08 -0.88,-0.8 -1.069,-2.29 -1.68,-3.36 1.64,-2.76 2.76,-6.04 4.8,-8.4 2.729,7.6 5.31768,14.902915 8.399,23.04 -1.4413,-0.575402 -2.78894,-1.262113 -3.84,-1.68 0.31729,3.11583 0.83683,5.752713 1.199,8.64 9.07,3.21 23.091,3.55 32.641,4.8 -1.93,2.87 -3.05,6.55 -5.521,8.88 -7.72,-2.32 -18.21,-1.97 -25.199,0.72 0.7592,5.501457 1.51166,11.857085 2.159,16.56 8.16,1.04 16.439,1.96 23.28,4.32 3.29,0.47 6.62,0.9 9.12,2.16 -1.381,2.46 -1.54,6.14 -3.36,8.16 -3.311,0 -5.71,1.03 -8.399,2.16 -6,2.529997 -12.899,4.859997 -18.239,7.679997 0.67,14.891 3.939,33.939 1.199,48.72 -0.46,2.479 -1.271,6.011 -3.359,7.44 0.149,-11.342 -0.46,-22.801 -1.439,-33.36 -0.91704,-6.76839 -1.34596,-13.59572 -2.75471,-20.28146 -3.479,1.56 -7.83629,2.97146 -10.68629,5.16146 1.3,3.81 2.26,8.91 1.68,13.2 -0.10045,0.47867 -0.11376,0.65273 -0.1157,0.93485 1.35432,-1.54947 2.48417,-2.64493 4.9167,-2.61585 1.46,2.119 0.93,5.25 0.479,7.921 -0.61,3.6 -2.141,8.079 -2.641,11.278 -0.521,3.371 -0.689,7.791 0,10.801 0.819,3.561 4.149,7.681 6.479,8.641 3.189,1.32 8.05,0.41 10.319,-0.96 5.301,-3.2 8.2,-10.42 8.641,-18.239 -0.51254,-7.27679 -1.70164,-15.0197 -4.08,-21.841 1.01384,-2.88982 2.65498,-5.19268 4.561,-8.16 2.06313,5.07 2.84,9.521 3.84,15.12 1.141,6.381 1.19,14.86 2.16,21.6 0.431,2.99 6.141,8.67 9.601,9.602 3.819,1.029 7.21,-0.352 9.12,-1.682 4.17,-2.898 0.3,-8.389 -1.439,-13.198 -2.38222,-6.65428 -4.76579,-13.28851 -5.7887,-20.28342 -0.28827,-1.70471 -0.77112,-3.10316 -2.1323,-4.19558 1.57,-2.11 1.74,-5.621 3.36,-7.681 3.34,4.66 7.34,8.66 9.359,14.64 -1,0.61 -2.261,-1.43 -3.601,-0.479 1.7212,9.7771 3.91,10.909 5.521,16.8 1.12,4.12 0.971,9.89 0,14.88 -1.47,7.51 -7.061,12.67 -16.08,10.801 -6.899,-1.431 -10.54,-8.351 -13.199,-14.399 -2.68426,5.9565 -4.47122,11.99562 -10.322,16.081 -4.54163,2.54873 -10.83666,1.88266 -13.201,0 -7.761,-5.101 -8.271,-18.81 -5.761,-29.761 0.46609,-2.29488 0.82757,-3.82308 0.481,-5.52 -1.42,-0.061 -2.351,1.891 -2.88,3.359 -1.729,4.779 -2.25,11.301 -3.12,17.279 -0.859,5.92 -3.529,14.91 -6.479,17.041 -6.359,4.6 -11.1743,-4.4951 -12.41636,-7.50464 -9.391,5.371 -21.74761,9.94212 -30.54364,20.94564 -1.279,1.409 -2.879995,2.729 -3.600995,3.84 -0.89,1.37 -0.479,2.46 -0.72,4.08 -1.12,7.66 -3.49,18.41 4.318995,19.92 2.721,0.24 5.62,-0.26 7.2,-0.96 3.64,-1.62 7.62,-4.939 10.8,-7.92 10.21,-9.591 17.931,-23.58 31.2,-29.04 3.8,-1.142 10.46,-1.562 14.159,0 0.881,-0.801 0.939,-2.42 2.641,-2.399 4.801,6.399 13.96849,11.16 25.21849,10.319 -1.98558,-2.80171 -4.03537,-6.84246 -6.25849,-10.562 -1.12,-1.16729 -1.979,-1.379 -2.64,-2.398 0.899,-2.62 1.159,-5.88 1.92,-8.641 3.97658,4.10452 8.20883,8.55277 12.481,12 -1,0.801 -2.71,-0.609 -3.36,0.479 2.04703,3.22166 3.4012,5.52668 4.801,7.921 0.65872,1.12673 4.59,-1.051 6.72,-1.921 5.561,-2.26 10.86,-5.819 14.4,-9.601 18.46241,-19.3386 20.05873,-71.93894 0.72,-104.639997 -8.439,-15.95 -19.55,-27.41 -32.88,-37.68 -16.95273,-12.209337 -36.66258,-19.905439 -57.361,-21.6000001 -12.971,-0.65 -38.640995,3.1200001 -39.840995,4.0800001 -29.02,5.24 -53.72,29.84 -59.52,39.12 -9.23927,12.605746 -15.91837,26.224103 -20.16,41.28 -0.94,3.73 -2.0700005,7.189997 -2.6400005,11.039997 -2.92,19.71 0.17,40.62 5.0400005,54.96 6.89,17.3 17.109,33.46 32.88,45.12 22.51518,17.31458 50.73619,28.70873 76.800995,24.24 7.18522,-1.26922 18.77676,-6.26055 27.121,-10.801 0,1.359 0,2.721 0,4.08 1.28,2.851 5.439,3.721 8.641,2.641 3.149,-1.07 7.521,-4.98 8.88,-8.16 1.261,-2.939 0.189,-9.48 4.561,-7.439 -0.63,4.069 1.431,7.271 4.561,7.439 3.58,0.189 6.0392,-1.96397 6.96,-5.521 0.86609,-3.45729 -1.11271,-9.97634 1.681,-10.318 0.97926,-0.11976 1.529,2.97 2.64,4.08 0.851,0.85 1.61,0.63 2.16,1.68 3.16,1.34 8.34,1.51 11.04,0 3.521,-1.97 0.319,-4.99 -1.2,-6.96 -1.319,-1.7 -1.899,-2.56834 -3.6,-4.319 -5.15829,0.93417 -10.18809,0.2602 -14.881,0 0.181,3.83 0.271,9.869 -3.119,11.521 -8.729,-2.552 -13.881,-8.681 -15.36,-18.479 -2.47,-1.431 -8.279,-1.721 -11.76,-1.201 -9.08096,2.60319 -15.83349,10.64528 -21.599,17.762 -4,4.25 -8.101,8.579 -12.239,12.238 -2.19,1.94 -4.83,4.07 -7.44,5.041 -9.189,3.41 -15.809995,-2.541 -17.038995,-10.319 -0.461,-2.899 -0.37,-6.479 0,-9.12 0.329,-2.32 1.0488,-4.63246 1.199,-6.721 -2.68417,3.4692 -4.68,6.66 -7.68,9.119 -2.27,1.858 -5.57,3.608 -8.88,4.078 z m 166.739995,-69.599 c -2.35674,13.28619 -6.16755,26.4906 -14.16,37.679 -6.199,7.59 -14.72,12.879 -24.479,17.039 1.08,4.83 3.62,12.391 1.439,18.48 -1.819,1.811 -3.29,3.949 -6.239,4.318 -4.53,0.57 -8.87,-2.358 -12,-3.84 -0.9,6.36 -3.601,14.521 -11.28,13.92 -3.279,-0.26 -4.17,-2.438 -6.479,-4.08 -1.8,1.541 -2.369,4.49 -4.08,6.722 -2.399,3.13 -8.319,7.64 -14.399,5.278 -2.899,-1.129 -4.09,-3.92 -5.279,-7.198 -24.95481,13.89729 -52.052375,11.04785 -69.358995,4.319 -7.721,-2.801 -15.171,-6.271 -22.08,-10.319 -18.0416,-10.66022 -33.3423,-25.20992 -43.2,-43.68 -5.1528305,-9.74325 -9.1370405,-20.2388 -11.7590005,-30.959 -3.511,-17.109 -2.86999996,-37.261 0.96,-55.439997 2.149,-4.97 2.97,-10.23 5.04,-15.12 5.9200005,-13.95 13.4700005,-26.11 23.2790005,-36.96 6.23,-6.89 13.311,-13.72 21.12,-18.96 15.33268,-10.506763 32.28968,-17.4450561 50.639995,-20.1600001 26.59798,-3.673861 42.16101,-0.91671803 65.04,6.24 30.17892,13.0956101 52.69844,35.3656791 67.68,65.0400001 9.84266,21.747697 11.77306,44.136667 9.595,67.680997 z m -64.74,-45.599997 c -3.89206,-1.619798 -6.43026,-1.591457 -9.47954,-2.40583 -0.003,1.871934 0.23833,3.09309 0.36054,5.28583 3.039,-0.96 6.399,-1.6 9.119,-2.88 z m -15.84,5.758997 c -0.52583,-3.722912 -0.57974,-5.853965 -1.439,-9.119997 -8.08177,-1.268834 -14.60122,-2.121767 -23.54376,-1.851767 0.1959,3.270117 0.90526,9.035424 1.02106,12.240694 2.88549,2.37877 4.50126,3.5967 6.44761,6.04961 6.156,-2.239 11.49309,-4.93854 17.51409,-7.31854 z m -2.399,-19.918997 c -0.74551,-3.254589 -0.65748,-6.50513 -1.66343,-13.081458 -6.221,1.91 -16.78266,5.905628 -23.05848,8.397086 0.09,1.11 0.41291,2.594372 0.72191,3.484372 7.609,-0.24 16.71,1.14 24,1.2 z m -3.601,-21.719543 c -6.399,-1.95 -13.00788,-3.715829 -19.439,-5.642457 -0.899,0.3 -0.84,1.56 -1.681,1.92 -0.38,-0.59 -1.80146,-0.58583 -2.28046,-0.48583 0.64,3.07 1.2002,8.827085 1.80146,12.72583 7.09349,-2.472662 14.66767,-5.317317 21.599,-8.517543 z m -7.92,81.95754 c 0.81527,-4.10359 2.98114,-8.03361 4.87497,-11.57046 -0.10515,-0.12758 -0.49429,-0.12781 -1.15997,-0.14278 -4.12778,-1.05646 -6.835,-1.32776 -8.755,-4.36776 -0.939,-1.489 -0.779,-3.5 -1.92,-5.28 -0.45,0.03 -0.801,0.16 -0.96,0.479 1.21392,9.4883 2.21166,18.99365 1.439,28.562 -0.86464,5.10337 -2.23153,7.68146 -4.08,11.278 -0.641,1.271 -3.15543,4.4251 -4.319,5.521 0.59656,1.54709 2.939,3.53 6,3.36 5.55753,-3.55505 6.44414,-11.1966 7.441,-17.28 0.569,-3.547 0.649,-7.217 1.439,-10.559 z m -10.559,8.162 c 0.181,-2.939 -0.38,-7.28 -0.721,-11.041 -0.58681,-5.15256 -0.77922,-10.37361 -2.03271,-15.42264 -0.08,0 -0.76729,0.30364 -0.84729,0.30364 -28.149,13.939 -44.430995,39.729 -69.599995,56.641 -1.771,4.979 -6.93,26 10.56,23.04 5.71,-0.971 10.66,-7.86 14.399,-12.24 4.11,-4.819 7.729,-10.68 12.239995,-14.399 4.12,-3.399 8.45,-5.521 12.479,-7.92 4.17,-2.479 8.641,-4.391 13.2,-7.439 -0.091,-2.84 -0.721,-6.67 -0.721,-10.08 0,-3.31531 0.37851,-6.66179 1.02898,-8.99379 0.0863,-0.30925 0.83753,-0.23766 1.13102,-0.36521 -0.71,6.029 0.021,12.379 1.199,17.279 3.704,-1.574 7.393,-4.533 7.685,-9.363 z m -11.282,-31.201 c 2.32117,-1.65747 5.83423,-3.42212 7.32763,-4.38304 0.0456,-1.08424 -0.52255,-2.78424 -0.731,-4.25987 -2.141,-1.67 -4.53563,-2.31709 -7.31663,-3.59709 -6.891,-3.19 -11.71,-6.169997 -9.601,-16.799997 2.28996,-5.594015 7.77825,-7.719893 13.19809,-9.10834 -0.44526,-1.122713 -0.20313,-1.668583 -0.48122,-2.095141 -4.17,1.42583 -12.79687,3.863481 -17.03587,4.963481 1.38,11.98 3.439,31.099997 0.479,42.239997 -0.271,1.011 -0.771,2.841 -2.16,2.881 0.061,-15.351 -2.38,-30.259997 -4.08,-44.640997 -5.609,-0.08 -11.169995,-1.46 -15.118995,-2.4 0.96722,6.560526 1.93417,13.26 1.68,21.599997 -1.05,2.63 -2.279,5.08 -3.12,7.92 -5.689,10.95 -18.81,13.78 -28.8,20.16 -7.101,4.53 -12.73,9.68 -18.24,15.6 -1.72,1.841 -4.32,3.621 -5.52,5.762 -0.811,1.439 -2.551,5.92 -2.771,6.85 -0.93,3.9 -1.57,8.49 -0.35,12.59 2.689,7.062 13.02,6.562 20.399,4.32 20.94,-7.609 33.771,-27.681 50.399995,-41.04 7.013,-5.632 14.124,-11.042 21.842,-16.562 z m 5.46027,-18.409523 c -0.41583,-3.672915 -0.86701,-6.580729 -1.37827,-9.429474 -2.21,0.65 -9.42,0.15 -9.84,2.64 -0.229,1.34 2.71,3.23 3.84,3.84 2.389,1.288 4.91827,2.557474 7.37827,2.949474 z m -43.859265,5.449523 c 0.931,-3.07 -0.399,-7.274167 -1.199,-9.599997 -2.38,1.22 -1.78,5.419997 -4.08,6.719997 -4.38,-3.109997 -7.23,-5.529997 -13.92,-5.519997 -11.99,0.03 -19.75,8.189997 -26.16,14.159997 -6.141,5.73 -11.92,12.689 -22.561,12.72 -7.569,7.03 -9.63,29.771 6.24,26.16 11.53332,-5.4826 17.91178,-17.32289 28.321,-24.482 4.859,-2.989 10.1,-5.149 15.12,-7.68 5.189,-2.62 10.87,-4.75 14.88,-8.16 1.059,-0.908 3.219,-3.867 3.359,-4.318 z m -1.44,-11.278997 c -0.82223,-5.522124 -1.39283,-11.140891 -2.25028,-16.791975 -0.29001,-0.785511 -1.04649,-1.249903 -2.06972,-2.168025 -2.05029,-1.83968 -5.88,-8.52 -8.88,-8.4 -2.229,0.09 -7.43,5.74 -6.72,13.44 1.92985,8.479958 13.98918,9.011104 19.92,13.92 z M 222.18745,115.85495 c 1.95,16.65 5.00156,36.8216 -0.239,50.16 -1.88863,-30.24794 -6.64198,-60.22919 -11.00766,-90.192491 -0.59974,-3.673153 -1.44695,-7.083031 -2.91234,-9.886506 1.521,-2.8 2.81,-5.83 4.56,-8.4 3.2,7.09 5.15233,13.3947 8.641,22.56 -1,1.1 -2.87983,-2.810601 -4.45983,-2.710601 0.69042,10.290859 3.23687,21.509127 4.45983,31.750598 0.219,2.159 0.7,4.449 0.958,6.719 z m -0.239,82.56 c -1.101,2.898 -2.57,5.43 -4.32,7.68 -3.29,-1.18 -5.489,-3.47 -8.159,-5.279 1.159,-3 3.149,-5.17 4.319,-8.159 3.189,1.448 5.95,3.328 8.16,5.758 z m -111.359,-76.799 c 0.84,3.31 -2.971,6.108 -4.32,8.64 -3.101,-1.539 -5.601,-3.68 -8.398995,-5.521 1.189,-3.369 3.228995,-5.89 5.039995,-8.64 1.107,1.089 7.229,3.74 7.679,5.521 z m -3.12,-15.841 c 0.39,2.91 -3.189,5.57 -4.32,8.16 -3.179995,-1.46 -5.648995,-3.63 -8.398995,-5.52 0.91,-3.33 3.141,-5.34 4.319,-8.4 1.918995,0.561 8.138995,3.871 8.399995,5.76 z m -51.600995,42.72 c 2.76,2.12 6.58,3.18 8.16,6.479 -1.25,2.99 -2.729,5.75 -4.56,8.16 -2.66,-2.14 -5.971,-3.63 -8.4,-6 1.08,-2.449 3.2,-5.919 4.8,-8.639 z"
   sodipodi:nodetypes="cccssccccscccssscccccccccccccsccccccccccccccccccccccccccccscccccccscccscccsssccccccccccccccccccccscccccccccccccsccccccccsccccccccscsscsccccccccccccscccccscccsccccccccccccccccccccccccccccccccccccccsccccccccccccccccccsscccccccccccccccccccssccccccssccccccccccccccssccccccccccccccccccccccccccccccc"
   style="fill:url(#linearGradient1402);fill-opacity:1"
   inkscape:connector-curvature="0" />
</svg>